<svg version="1.1" id="Layer_1" xmlns="http://www.w3.org/2000/svg" xmlns:xlink="http://www.w3.org/1999/xlink" x="0px" y="0px"
	 width="100%" viewBox="0 0 64 64" enable-background="new 0 0 64 64" xml:space="preserve">
<path fill="#000000" opacity="1.000000" stroke="none" 
	d="
M65.000000,18.997187 
	C65.000000,34.664341 65.000000,49.830948 65.000000,64.998169 
	C43.667572,64.998779 22.335142,64.998779 1.002034,64.999390 
	C1.001356,43.667660 1.001356,22.335318 1.000678,1.002232 
	C22.332253,1.001488 43.664505,1.001488 64.998383,1.000744 
	C65.000000,6.832211 65.000000,12.664424 65.000000,18.997187 
M62.999992,35.456749 
	C63.000027,27.637802 63.003716,19.818855 62.998901,11.999911 
	C62.995201,5.986048 62.130112,5.026295 56.266590,5.012645 
	C40.462429,4.975854 24.657494,5.077121 8.854292,4.948494 
	C4.645046,4.914233 2.863215,6.444347 2.946244,10.756624 
	C3.122350,19.903063 3.045789,29.055534 2.988320,38.205002 
	C2.917858,49.422913 2.335777,49.118195 13.794172,49.066685 
	C14.072778,49.065434 14.352533,49.319870 14.988285,49.627659 
	C14.988285,53.221233 14.988285,56.993816 14.988285,62.470482 
	C18.456005,60.261524 21.222736,59.036808 23.294519,57.077320 
	C29.221611,51.471489 35.553825,47.422897 44.228535,48.949966 
	C46.164856,49.290833 48.213005,48.967201 50.208603,49.005306 
	C63.246212,49.254269 63.257679,49.238060 62.999992,35.456749 
z"/>
<path fill="#BCD3DF" opacity="1.000000" stroke="none" 
	d="
M62.999992,35.947933 
	C63.257679,49.238060 63.246212,49.254269 50.208603,49.005306 
	C48.213005,48.967201 46.164856,49.290833 44.228535,48.949966 
	C35.553825,47.422897 29.221611,51.471489 23.294519,57.077320 
	C21.222736,59.036808 18.456005,60.261524 14.988285,62.470482 
	C14.988285,56.993816 14.988285,53.221233 14.988285,49.627659 
	C14.352533,49.319870 14.072778,49.065434 13.794172,49.066685 
	C2.335777,49.118195 2.917858,49.422913 2.988320,38.205002 
	C3.045789,29.055534 3.122350,19.903063 2.946244,10.756624 
	C2.863215,6.444347 4.645046,4.914233 8.854292,4.948494 
	C24.657494,5.077121 40.462429,4.975854 56.266590,5.012645 
	C62.130112,5.026295 62.995201,5.986048 62.998901,11.999911 
	C63.003716,19.818855 63.000027,27.637802 62.999992,35.947933 
M45.467522,8.999989 
	C34.495232,9.000023 23.521967,9.083988 12.551169,8.956111 
	C8.526826,8.909203 6.867739,10.527568 6.958086,14.553102 
	C7.110985,21.365795 7.054461,28.184952 6.986591,35.000401 
	C6.896078,44.089554 6.119017,45.443737 16.583042,45.021751 
	C17.351191,44.990772 18.130762,45.243069 18.855003,45.355873 
	C18.986183,48.301777 19.105196,50.974419 19.268364,54.638695 
	C25.496817,46.928482 32.451714,43.666767 41.465118,44.904953 
	C45.544308,45.465309 49.765804,44.933239 53.920155,45.020214 
	C57.443501,45.093983 59.072384,43.542465 59.023254,39.974216 
	C58.938576,33.824245 58.986794,27.672232 59.002686,21.521135 
	C59.038177,7.783185 60.205009,8.957340 45.467522,8.999989 
z"/>
<path fill="#000000" opacity="1.000000" stroke="none" 
	d="
M45.960670,8.999989 
	C60.205009,8.957340 59.038177,7.783185 59.002686,21.521135 
	C58.986794,27.672232 58.938576,33.824245 59.023254,39.974216 
	C59.072384,43.542465 57.443501,45.093983 53.920155,45.020214 
	C49.765804,44.933239 45.544308,45.465309 41.465118,44.904953 
	C32.451714,43.666767 25.496817,46.928482 19.268364,54.638695 
	C19.105196,50.974419 18.986183,48.301777 18.855003,45.355873 
	C18.130762,45.243069 17.351191,44.990772 16.583042,45.021751 
	C6.119017,45.443737 6.896078,44.089554 6.986591,35.000401 
	C7.054461,28.184952 7.110985,21.365795 6.958086,14.553102 
	C6.867739,10.527568 8.526826,8.909203 12.551169,8.956111 
	C23.521967,9.083988 34.495232,9.000023 45.960670,8.999989 
M50.987015,22.534750 
	C50.490608,22.032587 49.997349,21.095690 49.497334,21.092070 
	C38.059002,21.009258 26.619930,21.028261 15.454582,21.028261 
	C14.083992,24.846523 15.981177,25.054609 18.537458,25.032822 
	C28.191427,24.950542 37.847160,25.051788 47.500347,24.932289 
	C48.668465,24.917828 49.825123,23.977558 50.987015,22.534750 
M32.227215,29.000652 
	C26.606812,29.000652 20.986406,29.000652 15.366002,29.000652 
	C15.097834,29.484011 14.829664,29.967369 14.561495,30.450727 
	C15.642819,31.300179 16.693441,32.833580 17.810648,32.883732 
	C23.416603,33.135387 29.039972,32.999081 36.219463,32.999081 
	C34.718307,31.035252 33.943050,30.021049 32.227215,29.000652 
z"/>
<path fill="#BAC5CD" opacity="1.000000" stroke="none" 
	d="
M50.987053,23.000561 
	C49.825123,23.977558 48.668465,24.917828 47.500347,24.932289 
	C37.847160,25.051788 28.191427,24.950542 18.537458,25.032822 
	C15.981177,25.054609 14.083992,24.846523 15.454582,21.028261 
	C26.619930,21.028261 38.059002,21.009258 49.497334,21.092070 
	C49.997349,21.095690 50.490608,22.032587 50.987053,23.000561 
z"/>
<path fill="#BAC5CD" opacity="1.000000" stroke="none" 
	d="
M32.697502,29.003750 
	C33.943050,30.021049 34.718307,31.035252 36.219463,32.999081 
	C29.039972,32.999081 23.416603,33.135387 17.810648,32.883732 
	C16.693441,32.833580 15.642819,31.300179 14.561495,30.450727 
	C14.829664,29.967369 15.097834,29.484011 15.366002,29.000652 
	C20.986406,29.000652 26.606812,29.000652 32.697502,29.003750 
z"/>
</svg>